<svg width="32" height="32" viewBox="0 0 32 32" fill="none" xmlns="http://www.w3.org/2000/svg">
<path d="M19.92 6.92008C20.4241 6.33912 20.8084 5.66431 21.0509 4.9344C21.2935 4.20449 21.3895 3.43385 21.3333 2.66675C19.7858 2.79166 18.3493 3.51949 17.3333 4.69341C16.8468 5.25605 16.4781 5.91059 16.2491 6.61827C16.0201 7.32596 15.9354 8.07241 16 8.81342C16.7549 8.8197 17.501 8.65221 18.1808 8.32389C18.8606 7.99558 19.4556 7.51525 19.92 6.92008ZM23.28 16.8401C23.2889 15.8184 23.5581 14.8158 24.062 13.927C24.5659 13.0382 25.2879 12.2924 26.16 11.7601C25.6096 10.9671 24.8821 10.3132 24.035 9.85031C23.1879 9.38744 22.2447 9.12829 21.28 9.09342C19.2 8.88008 17.28 10.3067 16.1733 10.3067C15.0667 10.3067 13.5067 9.12008 11.7733 9.14675C10.6402 9.18408 9.53603 9.51446 8.5686 10.1057C7.60117 10.6969 6.80348 11.5287 6.25334 12.5201C3.90667 16.6001 5.65334 22.6667 8 25.9601C9.06667 27.5734 10.4 29.4001 12.16 29.3334C13.92 29.2667 14.4933 28.2401 16.5333 28.2401C18.5733 28.2401 19.2 29.3334 20.9333 29.2934C22.6667 29.2534 23.8933 27.6401 25.0133 26.0267C25.8067 24.8555 26.4265 23.5755 26.8533 22.2267C25.7966 21.7761 24.8951 21.0258 24.2601 20.0685C23.625 19.1112 23.2843 17.9889 23.28 16.8401Z" fill="#2D2D2D"/>
</svg>
