<svg width="24" height="24" viewBox="0 0 24 24" fill="none" xmlns="http://www.w3.org/2000/svg">
<path d="M23.8153 8.75439H0.18457V15.2436H23.8153V8.75439Z" fill="#F0F5F9"/>
<path d="M23.8153 4.49731H0.18457V9.49855H23.8153V4.49731Z" fill="#F28623"/>
<path d="M23.8153 14.5015H0.18457V19.5027H23.8153V14.5015Z" fill="#65B54E"/>
<path d="M12.4389 13.8651C13.469 13.622 14.1069 12.5899 13.8638 11.5599C13.6207 10.5298 12.5886 9.89189 11.5585 10.135C10.5285 10.3781 9.89056 11.4102 10.1337 12.4403C10.3768 13.4703 11.4089 14.1082 12.4389 13.8651Z" fill="#00247D"/>
<path d="M12.7587 13.5452L12.8233 13.3883C12.8353 13.3599 12.8553 13.3357 12.8809 13.3186C12.9065 13.3016 12.9366 13.2924 12.9673 13.2923H13.1372C13.1783 13.2923 13.2178 13.2759 13.2468 13.2469C13.2759 13.2178 13.2923 13.1783 13.2923 13.1372V12.9674C13.2924 12.9366 13.3016 12.9065 13.3186 12.8809C13.3357 12.8553 13.3599 12.8353 13.3883 12.8234L13.5452 12.7587C13.5832 12.7428 13.6133 12.7126 13.6292 12.6746C13.6451 12.6366 13.6454 12.5939 13.6301 12.5557L13.5637 12.3987C13.5523 12.3704 13.5496 12.3393 13.5558 12.3095C13.5621 12.2796 13.577 12.2522 13.5987 12.2307L13.7187 12.1107C13.7332 12.0963 13.7447 12.0792 13.7525 12.0604C13.7603 12.0415 13.7643 12.0213 13.7643 12.0009C13.7643 11.9805 13.7603 11.9603 13.7525 11.9414C13.7447 11.9226 13.7332 11.9055 13.7187 11.8911L13.5987 11.7711C13.5771 11.7491 13.5625 11.7213 13.5566 11.6911C13.5507 11.6609 13.5538 11.6297 13.5655 11.6012L13.6301 11.4443C13.638 11.4254 13.642 11.4051 13.6419 11.3847C13.6419 11.3642 13.6378 11.3439 13.6299 11.3251C13.622 11.3062 13.6105 11.2891 13.5959 11.2747C13.5814 11.2603 13.5642 11.2489 13.5452 11.2412L13.3883 11.1766C13.3599 11.1646 13.3357 11.1446 13.3186 11.119C13.3016 11.0934 13.2924 11.0634 13.2923 11.0326V10.8627C13.2923 10.8216 13.2759 10.7822 13.2468 10.7531C13.2178 10.724 13.1783 10.7077 13.1372 10.7077H12.9673C12.9366 10.7075 12.9065 10.6984 12.8809 10.6813C12.8553 10.6642 12.8353 10.64 12.8233 10.6117L12.7587 10.4547C12.7428 10.4168 12.7126 10.3866 12.6746 10.3707C12.6366 10.3548 12.5939 10.3545 12.5557 10.3698L12.3987 10.4363C12.3704 10.4476 12.3393 10.4503 12.3094 10.4441C12.2796 10.4379 12.2522 10.4229 12.2307 10.4012L12.1107 10.2812C12.0963 10.2667 12.0792 10.2553 12.0604 10.2475C12.0415 10.2396 12.0213 10.2356 12.0009 10.2356C11.9805 10.2356 11.9603 10.2396 11.9414 10.2475C11.9226 10.2553 11.9054 10.2667 11.891 10.2812L11.771 10.4012C11.7491 10.4228 11.7213 10.4374 11.6911 10.4434C11.6609 10.4493 11.6296 10.4462 11.6012 10.4344L11.4461 10.3698C11.4272 10.362 11.4069 10.358 11.3865 10.358C11.366 10.358 11.3458 10.3621 11.3269 10.37C11.308 10.3779 11.2909 10.3895 11.2765 10.404C11.2621 10.4185 11.2507 10.4358 11.243 10.4547L11.1784 10.6117C11.1665 10.64 11.1465 10.6642 11.1209 10.6813C11.0953 10.6984 11.0652 10.7075 11.0344 10.7077H10.8646C10.8234 10.7077 10.784 10.724 10.7549 10.7531C10.7258 10.7822 10.7095 10.8216 10.7095 10.8627V11.0326C10.7094 11.0634 10.7002 11.0934 10.6831 11.119C10.6661 11.1446 10.6419 11.1646 10.6135 11.1766L10.4566 11.2412C10.4186 11.2571 10.3884 11.2874 10.3725 11.3254C10.3567 11.3633 10.3563 11.4061 10.3717 11.4443L10.4381 11.6012C10.4495 11.6296 10.4522 11.6606 10.4459 11.6905C10.4397 11.7204 10.4248 11.7478 10.403 11.7692L10.283 11.8892C10.2686 11.9036 10.2571 11.9207 10.2493 11.9396C10.2415 11.9584 10.2374 11.9786 10.2374 11.9991C10.2374 12.0195 10.2415 12.0397 10.2493 12.0585C10.2571 12.0774 10.2686 12.0945 10.283 12.1089L10.403 12.2289C10.4246 12.2508 10.4393 12.2786 10.4452 12.3088C10.4511 12.339 10.448 12.3703 10.4363 12.3987L10.3717 12.5557C10.3638 12.5746 10.3598 12.5948 10.3598 12.6153C10.3599 12.6358 10.3639 12.656 10.3718 12.6749C10.3797 12.6938 10.3913 12.7109 10.4058 12.7253C10.4204 12.7397 10.4376 12.751 10.4566 12.7587L10.6135 12.8234C10.6419 12.8353 10.6661 12.8553 10.6831 12.8809C10.7002 12.9065 10.7094 12.9366 10.7095 12.9674V13.1372C10.7095 13.1783 10.7258 13.2178 10.7549 13.2469C10.784 13.2759 10.8234 13.2923 10.8646 13.2923H11.0344C11.0652 13.2924 11.0953 13.3016 11.1209 13.3186C11.1465 13.3357 11.1665 13.3599 11.1784 13.3883L11.243 13.5452C11.259 13.5832 11.2892 13.6134 11.3272 13.6292C11.3652 13.6451 11.4079 13.6455 11.4461 13.6301L11.603 13.5637C11.6314 13.5523 11.6624 13.5496 11.6923 13.5558C11.7222 13.5621 11.7496 13.577 11.771 13.5987L11.891 13.7187C11.9054 13.7332 11.9226 13.7447 11.9414 13.7525C11.9603 13.7603 11.9805 13.7644 12.0009 13.7644C12.0213 13.7644 12.0415 13.7603 12.0604 13.7525C12.0792 13.7447 12.0963 13.7332 12.1107 13.7187L12.2307 13.5987C12.2527 13.5772 12.2805 13.5625 12.3107 13.5566C12.3409 13.5507 12.3721 13.5538 12.4006 13.5655L12.5575 13.6301C12.5955 13.6454 12.6379 13.645 12.6756 13.6291C12.7133 13.6132 12.7432 13.583 12.7587 13.5452Z" fill="#F0F5F9"/>
<path d="M12.011 10.4787L11.9999 10.4104L11.9889 10.4787C11.9169 10.948 11.9169 11.4255 11.9889 11.8947L11.9999 11.963L12.011 11.8947C12.083 11.4255 12.083 10.948 12.011 10.4787ZM12.011 12.1052L11.9999 12.0369L11.9889 12.1052C11.9169 12.5744 11.9169 13.0519 11.9889 13.5212L11.9999 13.5895L12.011 13.5212C12.083 13.0519 12.083 12.5744 12.011 12.1052ZM13.5212 12.011L13.5895 11.9999L13.5212 11.9889C13.0519 11.9169 12.5744 11.9169 12.1052 11.9889L12.0369 11.9999L12.1052 12.011C12.5744 12.083 13.0519 12.083 13.5212 12.011ZM11.8947 12.011L11.963 11.9999L11.8947 11.9889C11.4255 11.9169 10.948 11.9169 10.4787 11.9889L10.4104 11.9999L10.4787 12.011C10.948 12.083 11.4255 12.083 11.8947 12.011ZM13.0836 10.931L13.1242 10.8756L13.0689 10.9162C12.6842 11.1957 12.3459 11.534 12.0664 11.9187L12.0258 11.9741L12.0812 11.9335C12.4659 11.654 12.8042 11.3157 13.0836 10.931ZM11.9335 12.0812L11.9741 12.0258L11.9187 12.0664C11.534 12.3459 11.1957 12.6842 10.9162 13.0689L10.8756 13.1242L10.931 13.0836C11.3157 12.8042 11.654 12.4659 11.9335 12.0812ZM13.0689 13.0836L13.1242 13.1242L13.0836 13.0689C12.8042 12.6842 12.4659 12.3459 12.0812 12.0664L12.0258 12.0258L12.0664 12.0812C12.3459 12.4659 12.6842 12.8042 13.0689 13.0836ZM11.9187 11.9335L11.9741 11.9741L11.9335 11.9187C11.654 11.534 11.3157 11.1957 10.931 10.9162L10.8756 10.8756L10.9162 10.931C11.1957 11.3157 11.534 11.654 11.9187 11.9335ZM11.4276 10.5895L11.3907 10.523L11.4073 10.5913C11.5198 11.053 11.7029 11.4945 11.9501 11.9002L11.9852 11.9593L11.9704 11.891C11.8572 11.4319 11.6742 10.993 11.4276 10.5895ZM12.0498 12.0922L12.0147 12.0332L12.0295 12.1015C12.1419 12.5631 12.325 13.0046 12.5722 13.4104L12.6092 13.4695L12.5926 13.4012C12.4801 12.9395 12.297 12.498 12.0498 12.0922ZM13.4104 11.4276L13.4695 11.3907L13.4012 11.4073C12.9395 11.5198 12.498 11.7029 12.0922 11.9501L12.0332 11.9852L12.1015 11.9704C12.5631 11.8579 13.0046 11.6749 13.4104 11.4276ZM11.9076 12.0498L11.9667 12.0147L11.8984 12.0295C11.4368 12.1419 10.9952 12.325 10.5895 12.5722L10.5304 12.6092L10.5987 12.5926C11.0604 12.4801 11.5019 12.297 11.9076 12.0498ZM12.5926 10.5987L12.6092 10.523L12.5722 10.5821C12.325 10.9879 12.1419 11.4294 12.0295 11.891L12.0147 11.9593L12.0498 11.9002C12.2963 11.4968 12.4794 11.0578 12.5926 10.5987ZM11.9704 12.1015L11.9852 12.0332L11.9501 12.0922C11.7029 12.498 11.5198 12.9395 11.4073 13.4012L11.3907 13.4769L11.4276 13.4178C11.6756 13.0097 11.8587 12.5657 11.9704 12.1015ZM13.4012 12.5926L13.4695 12.6092L13.4104 12.5722C13.0046 12.325 12.5631 12.1419 12.1015 12.0295L12.0332 12.0147L12.0922 12.0498C12.498 12.297 12.9395 12.4801 13.4012 12.5926ZM11.8984 11.9704L11.9667 11.9852L11.9076 11.9501C11.5019 11.7029 11.0604 11.5198 10.5987 11.4073L10.523 11.3907L10.5821 11.4276C10.9901 11.6756 11.4342 11.8587 11.8984 11.9704Z" fill="#00247D"/>
<path d="M12.0001 12.3802C12.2101 12.3802 12.3804 12.21 12.3804 11.9999C12.3804 11.7899 12.2101 11.6196 12.0001 11.6196C11.79 11.6196 11.6198 11.7899 11.6198 11.9999C11.6198 12.21 11.79 12.3802 12.0001 12.3802Z" fill="#00247D"/>
</svg>
