<svg width="97" height="116" viewBox="0 0 97 116" fill="none" xmlns="http://www.w3.org/2000/svg">
<path fill-rule="evenodd" clip-rule="evenodd" d="M49.0742 37.0955L49.3324 37.1015C55.3028 37.3143 60.078 42.2028 60.078 48.2028C60.078 54.2334 55.2541 59.1417 49.2403 59.3071L49.0417 59.3107L49.0748 37.0955H49.0742Z" fill="#FF0000"/>
<path fill-rule="evenodd" clip-rule="evenodd" d="M48.9254 37.0955L49.0735 37.0973L49.0404 59.3125L48.9254 59.3137C42.7666 59.3137 37.7742 54.3401 37.7742 48.2046C37.7742 42.0691 42.7666 37.0955 48.9254 37.0955Z" fill="#FF0000"/>
<path fill-rule="evenodd" clip-rule="evenodd" d="M49.1292 0.00585938L49.486 0.0106557C75.0153 0.514253 95.8567 20.9693 96.4855 46.6522C96.7124 55.9352 94.2667 64.6642 89.849 72.1097C86.4885 77.7721 81.0026 83.4868 76.5607 88.4664C68.3463 97.678 59.9645 106.696 51.8324 116L49.0136 113.477L48.9595 113.428L49.0082 80.7608L49.1496 80.7596L49.3055 80.7578C67.5663 80.3141 82.0094 65.2074 81.5641 47.0149C81.1332 29.401 66.9031 15.3536 49.424 14.8812L49.1075 14.8764L49.1298 0.00705844L49.1292 0.00585938Z" fill="#E60000"/>
<path fill-rule="evenodd" clip-rule="evenodd" d="M47.3299 0.0118024C47.9323 -0.00258616 48.5317 -0.00258619 49.1293 0.00520758L49.107 14.8745C48.6382 14.8661 48.167 14.8655 47.694 14.8775C29.4337 15.3212 14.9907 30.4279 15.436 48.6198C15.8784 66.7121 30.8817 81.0401 49.0089 80.7595L48.9602 113.427L40.1842 105.57L40.1818 105.568C39.6077 105.028 40.0602 104.546 40.1457 104.433L48.1592 96.2883L48.1447 95.5143C42.7117 99.7014 35.0864 101.052 29.5559 96.0575L29.5493 96.0521L29.5331 96.0377L29.518 96.0239L24.4238 91.4022C17.3497 84.8632 9.86584 77.2847 6.11666 70.2799C2.71111 63.916 0.702916 56.6845 0.514554 48.9825C-0.131772 22.5808 20.8287 0.656288 47.3305 0.0124018L47.3299 0.0118024Z" fill="#FF0000"/>
</svg>
