<svg width="24" height="24" viewBox="0 0 24 24" fill="none" xmlns="http://www.w3.org/2000/svg">
<path fill-rule="evenodd" clip-rule="evenodd" d="M12.1106 7.95447L12.1604 7.95567C13.3116 7.99683 14.2321 8.94291 14.2321 10.1041C14.2321 11.2713 13.302 12.2212 12.1425 12.2532L12.1042 12.2539L12.1106 7.95459V7.95447Z" fill="#FF0000"/>
<path fill-rule="evenodd" clip-rule="evenodd" d="M12.0819 7.9541L12.1105 7.95446L12.1041 12.2538L12.0819 12.2541C10.8945 12.2541 9.93188 11.2915 9.93188 10.104C9.93188 8.91662 10.8944 7.95398 12.0819 7.95398V7.9541Z" fill="#FF0000"/>
<path fill-rule="evenodd" clip-rule="evenodd" d="M12.1211 0.776365L12.1899 0.777205C17.1119 0.874645 21.1301 4.83345 21.2513 9.80361C21.2951 11.6002 20.8235 13.2895 19.9718 14.7304C19.3239 15.8263 18.2662 16.9322 17.4099 17.8959C15.8261 19.6785 14.2102 21.4239 12.6423 23.2244L12.0988 22.736L12.0884 22.7266L12.0977 16.4046L12.125 16.4043L12.155 16.404C15.6757 16.3182 18.4603 13.3945 18.3743 9.87368C18.2913 6.46485 15.5479 3.74637 12.1778 3.65492L12.1167 3.65396L12.1209 0.776245L12.1211 0.776365Z" fill="#E60000"/>
<path fill-rule="evenodd" clip-rule="evenodd" d="M11.7743 0.777665C11.8905 0.774905 12.0061 0.774905 12.1213 0.776345L12.1171 3.65407C12.0266 3.65251 11.9359 3.65227 11.8445 3.65455C8.32397 3.74047 5.53937 6.66403 5.62529 10.1847C5.71061 13.6863 8.60309 16.459 12.0981 16.4047L12.0887 22.7267L10.1705 21.0029L10.8956 20.1773C10.2945 20.3696 9.66281 20.4033 8.93273 19.8903C7.29041 18.4131 4.84625 16.2848 3.82877 14.3764C3.17201 13.1447 2.78501 11.7453 2.74865 10.2547C2.62409 5.14519 6.66521 0.902225 11.7746 0.777545L11.7743 0.777665Z" fill="#FF0000"/>
</svg>
