<svg width="117" height="20" viewBox="0 0 117 20" fill="none" xmlns="http://www.w3.org/2000/svg">
<path fill-rule="evenodd" clip-rule="evenodd" d="M48.7624 6.51318L48.8053 6.51418C49.7974 6.54968 50.5909 7.36508 50.5909 8.36588C50.5909 9.37178 49.7893 10.1905 48.79 10.2181L48.757 10.2187L48.7625 6.51318H48.7624Z" fill="#FF0000"/>
<path fill-rule="evenodd" clip-rule="evenodd" d="M48.7378 6.51294L48.7624 6.51324L48.7569 10.2187L48.7378 10.2189C47.7144 10.2189 46.8848 9.38934 46.8848 8.36594C46.8848 7.34254 47.7144 6.51294 48.7378 6.51294Z" fill="#FF0000"/>
<path fill-rule="evenodd" clip-rule="evenodd" d="M48.7717 0.32666L48.831 0.32746C53.0732 0.41146 56.5364 3.82336 56.6409 8.10725C56.6786 9.65565 56.2722 11.1117 55.5381 12.3535C54.9797 13.298 54.0681 14.2512 53.33 15.0818C51.965 16.6183 50.5722 18.1225 49.2209 19.6744L48.7525 19.2535L48.7435 19.2454L48.7516 13.7965L48.7751 13.7963L48.801 13.796C51.8354 13.722 54.2354 11.2023 54.1614 8.16775C54.0898 5.22976 51.7252 2.88666 48.8207 2.80786L48.7681 2.80706L48.7718 0.32686L48.7717 0.32666Z" fill="#E60000"/>
<path fill-rule="evenodd" clip-rule="evenodd" d="M48.4728 0.327652C48.5729 0.325252 48.6725 0.325252 48.7718 0.326552L48.768 2.80675C48.6901 2.80535 48.6118 2.80525 48.5332 2.80725C45.499 2.88125 43.099 5.40105 43.173 8.43545C43.2465 11.4532 45.7396 13.8431 48.7517 13.7963L48.7436 19.2452L47.2854 17.9347L47.285 17.9343C47.1896 17.8443 47.2648 17.7639 47.279 17.7451L48.6105 16.3865L48.6082 16.2574C47.7054 16.9558 46.4383 17.181 45.5193 16.348L45.5182 16.3471L45.5155 16.3447L45.513 16.3424L44.6665 15.5715C43.491 14.4808 42.2474 13.2167 41.6244 12.0483C41.0585 10.9868 40.7248 9.78065 40.6935 8.49595C40.5861 4.09215 44.0691 0.435152 48.4728 0.327752L48.4728 0.327652Z" fill="#FF0000"/>
<path d="M105.595 1.13115C106.771 1.13115 107.871 1.35025 108.897 1.78835C109.923 2.22655 110.816 2.82505 111.574 3.58375C112.333 4.34254 112.932 5.23484 113.37 6.26084C113.808 7.28674 114.027 8.38754 114.027 9.56314C114.027 9.96924 113.888 10.3112 113.61 10.589C113.332 10.8668 112.99 11.0058 112.584 11.0058H100.241C100.412 11.6042 100.668 12.1547 101.01 12.6569C101.352 13.1592 101.758 13.5921 102.229 13.9554C102.699 14.3188 103.222 14.602 103.8 14.805C104.377 15.008 104.975 15.1096 105.595 15.1096C106.407 15.1096 107.177 14.944 107.903 14.6126C108.63 14.2813 109.261 13.8057 109.795 13.1859C110.094 12.8439 110.458 12.6729 110.885 12.6729C111.248 12.6729 111.569 12.8011 111.847 13.0576C112.146 13.3141 112.306 13.64 112.328 14.0354C112.349 14.4308 112.232 14.7782 111.975 15.0774C111.163 16.0178 110.206 16.7392 109.106 17.2415C108.005 17.7438 106.835 17.9949 105.595 17.9949C104.441 17.9949 103.351 17.7758 102.325 17.3377C101.299 16.8996 100.401 16.2957 99.6318 15.5262C98.8624 14.7568 98.2585 13.859 97.8203 12.8331C97.3822 11.8071 97.1631 10.717 97.1631 9.56294C97.1631 8.38734 97.3822 7.28654 97.8203 6.26064C98.2585 5.23464 98.8623 4.34234 99.6318 3.58355C100.401 2.82475 101.299 2.22635 102.325 1.78815C103.351 1.35005 104.441 1.13095 105.595 1.13095L105.595 1.13115ZM84.8193 2.99075C85.2681 2.45635 85.8559 2.01295 86.5827 1.66015C87.3094 1.30745 88.2392 1.13115 89.372 1.13115C90.1414 1.08845 90.8896 1.20055 91.6163 1.46785C92.343 1.73505 92.9843 2.14645 93.54 2.70225C93.9889 3.15115 94.3309 3.64275 94.5659 4.17704C94.801 4.71144 94.972 5.22974 95.0789 5.73204C95.1858 6.23424 95.2445 6.68314 95.2552 7.07854C95.2659 7.47394 95.2712 7.74654 95.2712 7.89614V16.5526C95.2712 16.9587 95.1269 17.3007 94.8384 17.5786C94.5499 17.8565 94.2132 17.9954 93.8285 17.9954C93.4224 17.9954 93.0751 17.8565 92.7865 17.5786C92.4979 17.3007 92.3536 16.9587 92.3536 16.5526C92.3536 14.9068 92.3536 13.4427 92.3536 12.1602C92.3536 11.6045 92.3536 11.0648 92.3536 10.5411C92.3536 10.0174 92.3643 9.54184 92.3856 9.11434C92.3856 8.62274 92.3856 8.16324 92.3856 7.73574C92.407 7.37244 92.3963 7.00904 92.3536 6.64574C92.3109 6.34644 92.2307 6.02054 92.1131 5.66784C91.9956 5.31514 91.7978 4.99984 91.52 4.72204C90.8788 4.18774 90.1628 3.95254 89.3719 4.01664C88.7306 4.01664 88.2123 4.12354 87.8169 4.33724C87.4215 4.55094 87.1115 4.81284 86.8871 5.12274C86.6627 5.43274 86.5077 5.76404 86.4222 6.11664C86.3367 6.46934 86.2833 6.78464 86.2619 7.06244C86.2619 7.10524 86.2673 7.27624 86.2779 7.57544C86.2886 7.87464 86.294 8.24874 86.294 8.69764C86.294 9.14644 86.2886 9.65414 86.2779 10.2205C86.2673 10.787 86.2619 11.3586 86.2619 11.9358C86.2619 13.3037 86.2619 14.8426 86.2619 16.5526C86.2619 16.9587 86.123 17.3007 85.8451 17.5786C85.5672 17.8565 85.2252 17.9954 84.8191 17.9954C84.413 17.9954 84.071 17.8565 83.7932 17.5786C83.5153 17.3007 83.3764 16.9587 83.3764 16.5526C83.3764 14.8641 83.3764 13.3358 83.3764 11.9678V6.93424C83.3764 6.10064 83.0879 5.36324 82.5108 4.72204C82.2115 4.46554 81.8749 4.27314 81.5008 4.14494C81.1267 4.01664 80.7474 3.97394 80.3627 4.01664C79.5291 4.01664 78.8985 4.19294 78.471 4.54564C78.0436 4.89834 77.7443 5.29374 77.5733 5.73194C77.4023 6.17004 77.3114 6.58684 77.3008 6.98234C77.2901 7.37774 77.2848 7.61824 77.2848 7.70374C77.2848 7.70374 77.2848 7.83194 77.2848 8.08844C77.2848 8.34494 77.2848 8.68154 77.2848 9.09844C77.2848 9.51514 77.2902 9.99074 77.3008 10.5251C77.3115 11.0594 77.3169 11.6045 77.3169 12.1602C77.3169 13.4427 77.3169 14.9068 77.3169 16.5526C77.3169 16.9587 77.1726 17.3007 76.8841 17.5786C76.5956 17.8565 76.2482 17.9954 75.8421 17.9954C75.4574 17.9954 75.1207 17.8565 74.8321 17.5786C74.5436 17.3007 74.3993 16.9587 74.3993 16.5526V7.89614C74.3993 7.74654 74.4047 7.47934 74.4153 7.09464C74.426 6.70994 74.4794 6.26644 74.5756 5.76414C74.6718 5.26184 74.8374 4.73814 75.0725 4.19314C75.3077 3.64815 75.6497 3.15115 76.0984 2.70235C76.5473 2.25345 77.119 1.87945 77.8137 1.58015C78.5084 1.28095 79.358 1.13125 80.3626 1.13125C81.132 1.08855 81.8855 1.20065 82.6229 1.46795C83.3603 1.73515 84.0068 2.13595 84.5626 2.67025C84.6481 2.75575 84.7336 2.86265 84.8191 2.99085L84.8193 2.99075ZM110.949 8.12054C110.8 7.50074 110.548 6.93964 110.196 6.43734C109.843 5.93514 109.432 5.50754 108.961 5.15484C108.491 4.80224 107.968 4.52434 107.39 4.32124C106.813 4.11824 106.215 4.01664 105.595 4.01664C104.334 4.01664 103.212 4.39604 102.229 5.15474C101.245 5.91354 100.583 6.90214 100.241 8.12044H110.949L110.949 8.12054Z" fill="#330099"/>
<path d="M66.7959 1.2915C67.202 1.2915 67.544 1.4304 67.8219 1.7083C68.0998 1.9862 68.2387 2.3282 68.2387 2.7342C68.2387 3.1403 68.0998 3.4823 67.8219 3.7602C67.544 4.0381 67.2021 4.177 66.7959 4.177H64.1669C63.4829 4.177 62.9058 4.4068 62.4356 4.8663C61.9654 5.3259 61.7303 5.8976 61.7303 6.5816V16.5526C61.7303 16.9587 61.5913 17.3007 61.3135 17.5786C61.0356 17.8565 60.6937 17.9954 60.2875 17.9954C59.8814 17.9954 59.5394 17.8565 59.2617 17.5786C58.9839 17.3007 58.8448 16.9587 58.8448 16.5526V6.5816C58.8448 5.8335 58.9839 5.1388 59.2617 4.4976C59.5394 3.8564 59.9189 3.2953 60.3997 2.8144C60.8806 2.3335 61.4471 1.9594 62.099 1.6922C62.7509 1.425 63.4402 1.2915 64.167 1.2915H66.796H66.7959Z" fill="#330099"/>
<path d="M29.9575 1.13106C31.1331 1.13106 32.2339 1.35016 33.2598 1.78826C34.2858 2.22646 35.1781 2.82496 35.9369 3.58366C36.6956 4.34246 37.2941 5.23476 37.7323 6.26076C38.1705 7.28665 38.3896 8.38745 38.3896 9.56305C38.3896 9.96915 38.2507 10.3112 37.9728 10.589C37.6949 10.8668 37.3529 11.0058 36.9468 11.0058H24.6032C24.7742 11.6042 25.0308 12.1547 25.3727 12.6568C25.7147 13.1592 26.1208 13.5921 26.591 13.9553C27.0612 14.3188 27.5849 14.6019 28.162 14.8049C28.7391 15.0079 29.3376 15.1095 29.9574 15.1095C30.7696 15.1095 31.5391 14.9439 32.2658 14.6125C32.9925 14.2812 33.623 13.8056 34.1575 13.1859C34.4567 12.8439 34.8201 12.6729 35.2475 12.6729C35.6109 12.6729 35.9314 12.8011 36.2094 13.0576C36.5087 13.3141 36.6689 13.64 36.6903 14.0353C36.7116 14.4307 36.5941 14.7781 36.3376 15.0773C35.5254 16.0177 34.5689 16.7391 33.4681 17.2414C32.3674 17.7437 31.1971 17.9948 29.9574 17.9948C28.8032 17.9948 27.7131 17.7757 26.6872 17.3376C25.6613 16.8995 24.7635 16.2956 23.9941 15.5261C23.2247 14.7567 22.6208 13.859 22.1826 12.8331C21.7444 11.8071 21.5254 10.717 21.5254 9.56285C21.5254 8.38725 21.7445 7.28645 22.1826 6.26056C22.6207 5.23456 23.2246 4.34226 23.9941 3.58346C24.7636 2.82466 25.6613 2.22626 26.6872 1.78806C27.7132 1.34996 28.8033 1.13086 29.9574 1.13086L29.9575 1.13106ZM35.3118 8.12035C35.1622 7.50055 34.9111 6.93946 34.5584 6.43716C34.2057 5.93496 33.7943 5.50736 33.324 5.15466C32.8538 4.80206 32.3301 4.52416 31.753 4.32106C31.1758 4.11806 30.5774 4.01646 29.9575 4.01646C28.6964 4.01646 27.5743 4.39586 26.5911 5.15456C25.6079 5.91336 24.9453 6.90196 24.6033 8.12025H35.3118V8.12035Z" fill="#330099"/>
<path d="M5.78345 16.5526C5.78345 16.9587 5.64445 17.3007 5.36665 17.5786C5.08885 17.8565 4.74685 17.9954 4.34075 17.9954C3.93465 17.9954 3.59265 17.8565 3.31475 17.5786C3.03695 17.3007 2.89795 16.9587 2.89795 16.5526V9.56331C2.89795 8.38772 3.11705 7.28692 3.55525 6.26102C3.99335 5.23502 4.59725 4.34272 5.36665 3.58392C6.13605 2.82512 7.03384 2.22132 8.05974 1.77242C9.08564 1.32352 10.1757 1.09912 11.3299 1.09912C12.5055 1.09912 13.6062 1.32352 14.6322 1.77242C15.6581 2.22132 16.5505 2.82512 17.3093 3.58392C18.068 4.34272 18.6665 5.23502 19.1047 6.26102C19.5428 7.28692 19.7619 8.38772 19.7619 9.56331V16.5526C19.7619 16.9587 19.623 17.3007 19.3451 17.5786C19.0673 17.8565 18.7253 17.9954 18.3192 17.9954C17.9131 17.9954 17.5711 17.8565 17.2933 17.5786C17.0154 17.3007 16.8764 16.9587 16.8764 16.5526V9.56331C16.8764 8.79391 16.7322 8.07242 16.4436 7.39922C16.155 6.72592 15.7597 6.13812 15.2573 5.63592C14.755 5.13362 14.1672 4.73812 13.494 4.44962C12.8207 4.16112 12.0993 4.01682 11.3298 4.01682C10.5603 4.01682 9.83894 4.16112 9.16574 4.44962C8.49244 4.73812 7.90464 5.13362 7.40245 5.63592C6.90015 6.13812 6.50465 6.72592 6.21615 7.39922C5.92765 8.07252 5.78335 8.79391 5.78335 9.56331V16.5526H5.78345Z" fill="#330099"/>
</svg>
